HIERARCHY
ROOT Pelvis
{
	OFFSET 0.000000 0.941512 0.000000
	CHANNELS 6 Xposition Yposition Zposition Zrotation Yrotation Xrotation 
	JOINT Pelvis_L_Hip
	{
		OFFSET 0.000000 0.000000 0.000000
		CHANNELS 3 Zrotation Yrotation Xrotation
		JOINT L_Hip
		{
			OFFSET 0.062321 -0.080322 -0.016990
			CHANNELS 3 Zrotation Yrotation Xrotation
			JOINT L_Knee
			{
				OFFSET 0.093051 -0.381305 -0.029784
				CHANNELS 3 Zrotation Yrotation Xrotation
				JOINT L_Ankle
				{
					OFFSET -0.010371 -0.431000 -0.033614
					CHANNELS 3 Zrotation Yrotation Xrotation
					End Site #name: L_Foot
					{
						OFFSET 0.069299 -0.038670 0.119418
					}
				}
			}
		}
	}
	JOINT Pelvis_R_Hip
	{
		OFFSET 0.000000 0.000000 0.000000
		CHANNELS 3 Zrotation Yrotation Xrotation
		JOINT R_Hip
		{
			OFFSET -0.055334 -0.094904 -0.002373
			CHANNELS 3 Zrotation Yrotation Xrotation
			JOINT R_Knee
			{
				OFFSET -0.064207 -0.384370 -0.019592
				CHANNELS 3 Zrotation Yrotation Xrotation
				JOINT R_Ankle
				{
					OFFSET 0.025418 -0.419734 -0.065953
					CHANNELS 3 Zrotation Yrotation Xrotation
					End Site #name: R_Foot
					{
						OFFSET -0.057233 -0.039888 0.132134
					}
				}
			}
		}
	}
	JOINT Pelvis_Spine1
	{
		OFFSET 0.000000 0.000000 0.000000
		CHANNELS 3 Zrotation Yrotation Xrotation
		JOINT Spine1
		{
			OFFSET -0.005562 0.124093 -0.043360
			CHANNELS 3 Zrotation Yrotation Xrotation
			JOINT Spine2
			{
				OFFSET 0.012244 0.139499 0.029894
				CHANNELS 3 Zrotation Yrotation Xrotation
				JOINT Spine3
				{
					OFFSET -0.002556 0.056561 0.009225
					CHANNELS 3 Zrotation Yrotation Xrotation
					JOINT Spine3_Neck
					{
						OFFSET 0.000000 0.000000 0.000000
						CHANNELS 3 Zrotation Yrotation Xrotation
						JOINT Neck
						{
							OFFSET -0.005205 0.217920 -0.024551
							CHANNELS 3 Zrotation Yrotation Xrotation
							End Site #name: Head
							{
								OFFSET 0.002365 0.091850 0.046637
							}
						}
					}
					JOINT Spine3_L_Collar
					{
						OFFSET 0.000000 0.000000 0.000000
						CHANNELS 3 Zrotation Yrotation Xrotation
						JOINT L_Collar
						{
							OFFSET 0.072225 0.116603 -0.009480
							CHANNELS 3 Zrotation Yrotation Xrotation
							JOINT L_Shoulder
							{
								OFFSET 0.115937 -0.058643 -0.021018
								CHANNELS 3 Zrotation Yrotation Xrotation
								JOINT L_Elbow
								{
									OFFSET 0.021994 -0.254722 -0.024492
									CHANNELS 3 Zrotation Yrotation Xrotation
									End Site #name: L_Wrist
									{
										OFFSET 0.048810 -0.240214 0.103329
									}
								}
							}
						}
					}
					JOINT Spine3_R_Collar
					{
						OFFSET 0.000000 0.000000 0.000000
						CHANNELS 3 Zrotation Yrotation Xrotation
						JOINT R_Collar
						{
							OFFSET -0.073372 0.120704 -0.024611
							CHANNELS 3 Zrotation Yrotation Xrotation
							JOINT R_Shoulder
							{
								OFFSET -0.108089 -0.054969 -0.020504
								CHANNELS 3 Zrotation Yrotation Xrotation
								JOINT R_Elbow
								{
									OFFSET -0.033684 -0.260739 0.009889
									CHANNELS 3 Zrotation Yrotation Xrotation
									End Site #name: R_Wrist
									{
										OFFSET -0.067980 -0.232763 0.118463
									}
								}
							}
						}
					}
				}
			}
		}
	}
}
MOTION
Frames: 10
Frame Time: 0.041667
0.000000 0.941610 0.000000 -2.284488 -3.607962 7.068142 0.000000 0.000000 0.000000 -5.468178 -2.908587 -11.708380 6.468118 -1.273440 9.557471 -0.680794 -9.674466 -3.754774 0.000000 0.000000 0.000000 5.766687 1.931594 -10.489830 -4.445913 0.853942 1.604120 5.680363 18.277275 0.807490 0.000000 0.000000 0.000000 4.998373 1.138000 -17.287956 -5.676428 5.366110 37.658863 4.182809 3.901545 -32.303173 0.000000 0.000000 0.000000 -3.528184 1.824596 20.761205 0.000000 0.000000 0.000000 49.040062 -12.054313 -1.511166 23.747771 -1.450571 -1.771506 3.561502 4.589070 19.100872 0.000000 0.000000 0.000000 -50.355445 10.967955 1.086234 -25.187711 -1.086648 4.950305 -3.377116 -5.960055 17.868352 
-0.000081 0.941552 0.000074 -2.294129 -3.603781 7.069786 0.000000 0.000000 0.000000 -5.452829 -2.909499 -11.713076 6.466976 -1.274324 9.572814 -0.679409 -9.696225 -3.766710 0.000000 0.000000 0.000000 5.785134 1.934435 -10.500065 -4.446974 0.857279 1.634326 5.674391 18.288695 0.792357 0.000000 0.000000 0.000000 5.002111 1.139165 -17.298166 -5.655997 5.355170 37.663201 4.187222 3.903354 -32.319570 0.000000 0.000000 0.000000 -3.594341 1.871859 20.872236 0.000000 0.000000 0.000000 49.119223 -12.020260 -1.449032 23.735732 -1.422317 -2.011932 3.524885 4.571735 19.036199 0.000000 0.000000 0.000000 -50.375669 10.904385 1.175791 -25.108758 -1.106019 4.734278 -3.371898 -5.955487 17.854716 
-0.000086 0.941538 0.000055 -2.283941 -3.611939 7.069512 0.000000 0.000000 0.000000 -5.465808 -2.909156 -11.710632 6.472217 -1.274979 9.569688 -0.689036 -9.683152 -3.745149 0.000000 0.000000 0.000000 5.776301 1.934336 -10.500887 -4.445821 0.857431 1.637876 5.676824 18.299529 0.791217 0.000000 0.000000 0.000000 4.985938 1.145103 -17.333770 -5.655971 5.366603 37.735160 4.195792 3.909345 -32.347257 0.000000 0.000000 0.000000 -3.575531 1.859306 20.910140 0.000000 0.000000 0.000000 49.075640 -11.993673 -1.422618 23.798177 -1.419249 -2.067925 3.492060 4.563550 19.030711 0.000000 0.000000 0.000000 -50.361809 10.879062 1.207787 -25.054260 -1.110042 4.692925 -3.373485 -5.958939 17.868260 
-0.000121 0.941556 0.000069 -2.262596 -3.612700 7.063831 0.000000 0.000000 0.000000 -5.491232 -2.909216 -11.708902 6.482995 -1.277226 9.576074 -0.700214 -9.659935 -3.716279 0.000000 0.000000 0.000000 5.751855 1.933137 -10.498836 -4.437612 0.857032 1.647867 5.674274 18.301892 0.785574 0.000000 0.000000 0.000000 4.966821 1.152210 -17.376478 -5.649483 5.377629 37.836052 4.194399 3.905782 -32.388760 0.000000 0.000000 0.000000 -3.532417 1.829648 20.939730 0.000000 0.000000 0.000000 49.025605 -11.980934 -1.415226 23.841235 -1.420827 -2.071236 3.498788 4.570755 19.067475 0.000000 0.000000 0.000000 -50.341004 10.851458 1.241251 -25.010809 -1.112177 4.676998 -3.398462 -5.969416 17.882891 
-0.000166 0.941570 0.000076 -2.249782 -3.608705 7.055021 0.000000 0.000000 0.000000 -5.506584 -2.907565 -11.701172 6.491671 -1.278930 9.577663 -0.706454 -9.651441 -3.702009 0.000000 0.000000 0.000000 5.739534 1.931502 -10.492889 -4.433417 0.857162 1.655814 5.669613 18.298621 0.779318 0.000000 0.000000 0.000000 4.953086 1.155509 -17.393509 -5.638222 5.378250 37.887338 4.194181 3.901795 -32.405992 0.000000 0.000000 0.000000 -3.504022 1.809933 20.947776 0.000000 0.000000 0.000000 48.997800 -11.970668 -1.407282 23.854706 -1.421523 -2.070536 3.511218 4.577740 19.098624 0.000000 0.000000 0.000000 -50.325930 10.829999 1.266783 -24.992663 -1.112744 4.675956 -3.415800 -5.972138 17.871344 
-0.000167 0.941570 0.000076 -2.249614 -3.608592 7.054740 0.000000 0.000000 0.000000 -5.506203 -2.907701 -11.702056 6.490730 -1.278699 9.578348 -0.706694 -9.651556 -3.701616 0.000000 0.000000 0.000000 5.739424 1.931372 -10.492240 -4.433653 0.857212 1.655830 5.669481 18.299022 0.778824 0.000000 0.000000 0.000000 4.952869 1.155484 -17.393056 -5.638225 5.378425 37.887487 4.194457 3.901859 -32.406175 0.000000 0.000000 0.000000 -3.503279 1.809391 20.947395 0.000000 0.000000 0.000000 48.997549 -11.971247 -1.407425 23.854619 -1.421433 -2.069666 3.509944 4.577398 19.097097 0.000000 0.000000 0.000000 -50.325604 10.829431 1.267377 -24.992510 -1.112649 4.675587 -3.415837 -5.972238 17.871492 
-0.000187 0.941549 -0.000010 -2.241371 -3.586660 7.129714 0.000000 0.000000 0.000000 -5.528978 -2.942332 -11.825695 6.524050 -1.286601 9.610211 -0.785654 -9.546331 -3.523403 0.000000 0.000000 0.000000 5.752429 1.940081 -10.532783 -4.472176 0.853372 1.555071 5.691642 18.254382 0.837681 0.000000 0.000000 0.000000 4.906114 1.168439 -17.468777 -5.576865 5.340130 37.869246 4.185505 3.923143 -32.393308 0.000000 0.000000 0.000000 -3.554426 1.839490 20.841049 0.000000 0.000000 0.000000 48.964638 -11.999401 -1.438774 23.862755 -1.424292 -2.057287 3.433713 4.560420 19.101506 0.000000 0.000000 0.000000 -50.340257 10.836961 1.246814 -25.004791 -1.102575 4.798872 -3.388204 -5.958154 17.843354 
-0.000713 0.941363 0.000061 -2.260864 -3.604580 6.994516 0.000000 0.000000 0.000000 -5.497874 -2.886715 -11.626759 6.531769 -1.282135 9.535719 -0.738743 -9.690365 -3.665951 0.000000 0.000000 0.000000 5.834716 1.913393 -10.396562 -4.508833 0.863140 1.588818 5.633164 18.315744 0.709381 0.000000 0.000000 0.000000 4.983261 1.154965 -17.401159 -5.537629 5.325741 37.906783 4.142252 3.866968 -32.326242 0.000000 0.000000 0.000000 -3.493375 1.803207 20.914520 0.000000 0.000000 0.000000 49.066908 -11.922743 -1.336562 23.678647 -1.421152 -1.983890 3.490404 4.567824 19.065003 0.000000 0.000000 0.000000 -50.331094 10.835060 1.258468 -24.935492 -1.099112 4.809433 -3.334640 -5.964405 17.948376 
-0.000723 0.941360 0.000049 -2.260696 -3.605230 6.993596 0.000000 0.000000 0.000000 -5.497349 -2.886727 -11.626752 6.531453 -1.282286 9.538167 -0.736405 -9.689148 -3.669281 0.000000 0.000000 0.000000 5.833399 1.913686 -10.397985 -4.506587 0.863303 1.594425 5.632558 18.314915 0.708339 0.000000 0.000000 0.000000 4.988767 1.155745 -17.409946 -5.542388 5.330302 37.921185 4.142914 3.867548 -32.333400 0.000000 0.000000 0.000000 -3.489810 1.800774 20.918926 0.000000 0.000000 0.000000 49.047608 -11.922550 -1.339896 23.702924 -1.423495 -1.976167 3.487043 4.567163 19.063898 0.000000 0.000000 0.000000 -50.329271 10.833603 1.260159 -24.935167 -1.099279 4.812285 -3.336277 -5.964029 17.944863 
-0.000723 0.941360 0.000049 -2.260638 -3.605232 6.993559 0.000000 0.000000 0.000000 -5.497520 -2.886679 -11.626481 6.531697 -1.282344 9.538038 -0.736367 -9.689120 -3.669335 0.000000 0.000000 0.000000 5.833328 1.913666 -10.397902 -4.506214 0.863208 1.594000 5.632821 18.315206 0.708750 0.000000 0.000000 0.000000 4.988782 1.155761 -17.410100 -5.542568 5.330481 37.921242 4.143059 3.867603 -32.333347 0.000000 0.000000 0.000000 -3.489898 1.800820 20.918966 0.000000 0.000000 0.000000 49.047448 -11.922839 -1.340055 23.703094 -1.423486 -1.975810 3.486461 4.567004 19.063282 0.000000 0.000000 0.000000 -50.329255 10.833493 1.260240 -24.935376 -1.099175 4.811502 -3.336677 -5.964508 17.946400 
